<svg xmlns="http://www.w3.org/2000/svg" xmlns:xlink="http://www.w3.org/1999/xlink" version="1.1" class="marks" width="677" height="452" viewBox="0 0 677 452"><rect width="677" height="452" fill="white"/><g fill="none" stroke-miterlimit="10" transform="translate(64,5)"><g class="mark-group role-frame root" role="graphics-object" aria-roledescription="group mark container"><g transform="translate(0,0)"><path class="background" aria-hidden="true" d="M0,0h600v400h-600Z" fill="#EBEBEB"/><g><g class="mark-group role-axis" aria-hidden="true"><g transform="translate(0.5,400.5)"><path class="background" aria-hidden="true" d="M0,0h0v0h0Z" pointer-events="none"/><g><g class="mark-rule role-axis-grid" pointer-events="none"><line transform="translate(18,-400)" x2="0" y2="400" stroke="#FFFFFF" stroke-width="1" opacity="1"/><line transform="translate(134,-400)" x2="0" y2="400" stroke="#FFFFFF" stroke-width="1" opacity="1"/><line transform="translate(250,-400)" x2="0" y2="400" stroke="#FFFFFF" stroke-width="1" opacity="1"/><line transform="translate(366,-400)" x2="0" y2="400" stroke="#FFFFFF" stroke-width="1" opacity="1"/><line transform="translate(482,-400)" x2="0" y2="400" stroke="#FFFFFF" stroke-width="1" opacity="1"/><line transform="translate(598,-400)" x2="0" y2="400" stroke="#FFFFFF" stroke-width="1" opacity="1"/></g></g><path class="foreground" aria-hidden="true" d="" pointer-events="none" display="none"/></g></g><g class="mark-group role-axis" aria-hidden="true"><g transform="translate(0.5,0.5)"><path class="background" aria-hidden="true" d="M0,0h0v0h0Z" pointer-events="none"/><g><g class="mark-rule role-axis-grid" pointer-events="none"><line transform="translate(0,356)" x2="600" y2="0" stroke="#FFFFFF" stroke-width="1" opacity="1"/><line transform="translate(0,265)" x2="600" y2="0" stroke="#FFFFFF" stroke-width="1" opacity="1"/><line transform="translate(0,174)" x2="600" y2="0" stroke="#FFFFFF" stroke-width="1" opacity="1"/><line transform="translate(0,83)" x2="600" y2="0" stroke="#FFFFFF" stroke-width="1" opacity="1"/></g></g><path class="foreground" aria-hidden="true" d="" pointer-events="none" display="none"/></g></g><g class="mark-group role-axis" role="graphics-symbol" aria-roledescription="axis" aria-label="X-axis titled 'mpg' for a linear scale with values from 9 to 35"><g transform="translate(0.5,400.5)"><path class="background" aria-hidden="true" d="M0,0h0v0h0Z" pointer-events="none"/><g><g class="mark-rule role-axis-tick" pointer-events="none"><line transform="translate(18,0)" x2="0" y2="4" stroke="#333333" stroke-width="1" opacity="1"/><line transform="translate(134,0)" x2="0" y2="4" stroke="#333333" stroke-width="1" opacity="1"/><line transform="translate(250,0)" x2="0" y2="4" stroke="#333333" stroke-width="1" opacity="1"/><line transform="translate(366,0)" x2="0" y2="4" stroke="#333333" stroke-width="1" opacity="1"/><line transform="translate(482,0)" x2="0" y2="4" stroke="#333333" stroke-width="1" opacity="1"/><line transform="translate(598,0)" x2="0" y2="4" stroke="#333333" stroke-width="1" opacity="1"/></g><g class="mark-text role-axis-label" pointer-events="none"><text text-anchor="middle" transform="translate(17.98839458413928,15)" font-family="sans-serif" font-size="12px" fill="#4D4D4D" opacity="1">10</text><text text-anchor="middle" transform="translate(134.04255319148942,15)" font-family="sans-serif" font-size="12px" fill="#4D4D4D" opacity="1">15</text><text text-anchor="middle" transform="translate(250.09671179883952,15)" font-family="sans-serif" font-size="12px" fill="#4D4D4D" opacity="1">20</text><text text-anchor="middle" transform="translate(366.15087040618965,15)" font-family="sans-serif" font-size="12px" fill="#4D4D4D" opacity="1">25</text><text text-anchor="middle" transform="translate(482.20502901353973,15)" font-family="sans-serif" font-size="12px" fill="#4D4D4D" opacity="1">30</text><text text-anchor="middle" transform="translate(598.2591876208899,15)" font-family="sans-serif" font-size="12px" fill="#4D4D4D" opacity="1">35</text></g><g class="mark-text role-axis-title" pointer-events="none"><text text-anchor="middle" transform="translate(300,39)" font-family="sans-serif" font-size="15px" font-weight="normal" fill="#000000" opacity="1">mpg</text></g></g><path class="foreground" aria-hidden="true" d="" pointer-events="none" display="none"/></g></g><g class="mark-group role-axis" role="graphics-symbol" aria-roledescription="axis" aria-label="Y-axis titled 'disp' for a linear scale with values from 51 to 492"><g transform="translate(0.5,0.5)"><path class="background" aria-hidden="true" d="M0,0h0v0h0Z" pointer-events="none"/><g><g class="mark-rule role-axis-tick" pointer-events="none"><line transform="translate(0,356)" x2="-4" y2="0" stroke="#333333" stroke-width="1" opacity="1"/><line transform="translate(0,265)" x2="-4" y2="0" stroke="#333333" stroke-width="1" opacity="1"/><line transform="translate(0,174)" x2="-4" y2="0" stroke="#333333" stroke-width="1" opacity="1"/><line transform="translate(0,83)" x2="-4" y2="0" stroke="#333333" stroke-width="1" opacity="1"/></g><g class="mark-text role-axis-label" pointer-events="none"><text text-anchor="end" transform="translate(-6,359.6044354747273)" font-family="sans-serif" font-size="12px" fill="#4D4D4D" opacity="1">100</text><text text-anchor="end" transform="translate(-6,268.8994308260958)" font-family="sans-serif" font-size="12px" fill="#4D4D4D" opacity="1">200</text><text text-anchor="end" transform="translate(-6,178.19442617746435)" font-family="sans-serif" font-size="12px" fill="#4D4D4D" opacity="1">300</text><text text-anchor="end" transform="translate(-6,87.48942152883288)" font-family="sans-serif" font-size="12px" fill="#4D4D4D" opacity="1">400</text></g><g class="mark-text role-axis-title" pointer-events="none"><text text-anchor="middle" transform="translate(-44,200) rotate(-90) translate(0,-3)" font-family="sans-serif" font-size="15px" font-weight="normal" fill="#000000" opacity="1">disp</text></g></g><path class="foreground" aria-hidden="true" d="" pointer-events="none" display="none"/></g></g><g class="mark-symbol role-mark layer_0_marks" clip-path="url(#clip1)" role="graphics-object" aria-roledescription="symbol mark container"><path aria-label="mpg: 21; disp: 160" role="graphics-symbol" aria-roledescription="point" transform="translate(273.30754352030954,301.18143268554843)" d="M3.545,0A3.545,3.545,0,1,1,-3.545,0A3.545,3.545,0,1,1,3.545,0" fill="black" fill-opacity="0.8" stroke="black" stroke-width="1.3333333333333333" opacity="0.7"/><path aria-label="mpg: 21; disp: 160" role="graphics-symbol" aria-roledescription="point" transform="translate(273.30754352030954,301.18143268554843)" d="M3.545,0A3.545,3.545,0,1,1,-3.545,0A3.545,3.545,0,1,1,3.545,0" fill="black" fill-opacity="0.8" stroke="black" stroke-width="1.3333333333333333" opacity="0.7"/><path aria-label="mpg: 22.8; disp: 108" role="graphics-symbol" aria-roledescription="point" transform="translate(315.0870406189556,348.3480351028368)" d="M3.545,0A3.545,3.545,0,1,1,-3.545,0A3.545,3.545,0,1,1,3.545,0" fill="black" fill-opacity="0.8" stroke="black" stroke-width="1.3333333333333333" opacity="0.7"/><path aria-label="mpg: 21.4; disp: 258" role="graphics-symbol" aria-roledescription="point" transform="translate(282.59187620889753,212.29052812988957)" d="M3.545,0A3.545,3.545,0,1,1,-3.545,0A3.545,3.545,0,1,1,3.545,0" fill="black" fill-opacity="0.8" stroke="black" stroke-width="1.3333333333333333" opacity="0.7"/><path aria-label="mpg: 18.7; disp: 360" role="graphics-symbol" aria-roledescription="point" transform="translate(219.92263056092847,119.77142338828548)" d="M3.545,0A3.545,3.545,0,1,1,-3.545,0A3.545,3.545,0,1,1,3.545,0" fill="black" fill-opacity="0.8" stroke="black" stroke-width="1.3333333333333333" opacity="0.7"/><path aria-label="mpg: 18.1; disp: 225" role="graphics-symbol" aria-roledescription="point" transform="translate(205.99613152804653,242.22317966393794)" d="M3.545,0A3.545,3.545,0,1,1,-3.545,0A3.545,3.545,0,1,1,3.545,0" fill="black" fill-opacity="0.8" stroke="black" stroke-width="1.3333333333333333" opacity="0.7"/><path aria-label="mpg: 14.3; disp: 360" role="graphics-symbol" aria-roledescription="point" transform="translate(117.7949709864604,119.77142338828548)" d="M3.545,0A3.545,3.545,0,1,1,-3.545,0A3.545,3.545,0,1,1,3.545,0" fill="black" fill-opacity="0.8" stroke="black" stroke-width="1.3333333333333333" opacity="0.7"/><path aria-label="mpg: 24.4; disp: 146.7" role="graphics-symbol" aria-roledescription="point" transform="translate(352.2243713733076,313.24519830381644)" d="M3.545,0A3.545,3.545,0,1,1,-3.545,0A3.545,3.545,0,1,1,3.545,0" fill="black" fill-opacity="0.8" stroke="black" stroke-width="1.3333333333333333" opacity="0.7"/><path aria-label="mpg: 22.8; disp: 140.8" role="graphics-symbol" aria-roledescription="point" transform="translate(315.0870406189556,318.5967935780857)" d="M3.545,0A3.545,3.545,0,1,1,-3.545,0A3.545,3.545,0,1,1,3.545,0" fill="black" fill-opacity="0.8" stroke="black" stroke-width="1.3333333333333333" opacity="0.7"/><path aria-label="mpg: 19.2; disp: 167.6" role="graphics-symbol" aria-roledescription="point" transform="translate(231.52804642166348,294.28785233225244)" d="M3.545,0A3.545,3.545,0,1,1,-3.545,0A3.545,3.545,0,1,1,3.545,0" fill="black" fill-opacity="0.8" stroke="black" stroke-width="1.3333333333333333" opacity="0.7"/><path aria-label="mpg: 17.8; disp: 167.6" role="graphics-symbol" aria-roledescription="point" transform="translate(199.0328820116055,294.28785233225244)" d="M3.545,0A3.545,3.545,0,1,1,-3.545,0A3.545,3.545,0,1,1,3.545,0" fill="black" fill-opacity="0.8" stroke="black" stroke-width="1.3333333333333333" opacity="0.7"/><path aria-label="mpg: 16.4; disp: 275.8" role="graphics-symbol" aria-roledescription="point" transform="translate(166.5377176015474,196.14503730243317)" d="M3.545,0A3.545,3.545,0,1,1,-3.545,0A3.545,3.545,0,1,1,3.545,0" fill="black" fill-opacity="0.8" stroke="black" stroke-width="1.3333333333333333" opacity="0.7"/><path aria-label="mpg: 17.3; disp: 275.8" role="graphics-symbol" aria-roledescription="point" transform="translate(187.42746615087046,196.14503730243317)" d="M3.545,0A3.545,3.545,0,1,1,-3.545,0A3.545,3.545,0,1,1,3.545,0" fill="black" fill-opacity="0.8" stroke="black" stroke-width="1.3333333333333333" opacity="0.7"/><path aria-label="mpg: 15.2; disp: 275.8" role="graphics-symbol" aria-roledescription="point" transform="translate(138.6847195357834,196.14503730243317)" d="M3.545,0A3.545,3.545,0,1,1,-3.545,0A3.545,3.545,0,1,1,3.545,0" fill="black" fill-opacity="0.8" stroke="black" stroke-width="1.3333333333333333" opacity="0.7"/><path aria-label="mpg: 10.4; disp: 472" role="graphics-symbol" aria-roledescription="point" transform="translate(27.272727272727295,18.18181818181821)" d="M3.545,0A3.545,3.545,0,1,1,-3.545,0A3.545,3.545,0,1,1,3.545,0" fill="black" fill-opacity="0.8" stroke="black" stroke-width="1.3333333333333333" opacity="0.7"/><path aria-label="mpg: 10.4; disp: 460" role="graphics-symbol" aria-roledescription="point" transform="translate(27.272727272727295,29.066418739653965)" d="M3.545,0A3.545,3.545,0,1,1,-3.545,0A3.545,3.545,0,1,1,3.545,0" fill="black" fill-opacity="0.8" stroke="black" stroke-width="1.3333333333333333" opacity="0.7"/><path aria-label="mpg: 14.7; disp: 440" role="graphics-symbol" aria-roledescription="point" transform="translate(127.07930367504838,47.20741966938027)" d="M3.545,0A3.545,3.545,0,1,1,-3.545,0A3.545,3.545,0,1,1,3.545,0" fill="black" fill-opacity="0.8" stroke="black" stroke-width="1.3333333333333333" opacity="0.7"/><path aria-label="mpg: 32.4; disp: 78.7" role="graphics-symbol" aria-roledescription="point" transform="translate(537.9110251450677,374.9246014648858)" d="M3.545,0A3.545,3.545,0,1,1,-3.545,0A3.545,3.545,0,1,1,3.545,0" fill="black" fill-opacity="0.8" stroke="black" stroke-width="1.3333333333333333" opacity="0.7"/><path aria-label="mpg: 30.4; disp: 75.7" role="graphics-symbol" aria-roledescription="point" transform="translate(491.48936170212767,377.64575160434475)" d="M3.545,0A3.545,3.545,0,1,1,-3.545,0A3.545,3.545,0,1,1,3.545,0" fill="black" fill-opacity="0.8" stroke="black" stroke-width="1.3333333333333333" opacity="0.7"/><path aria-label="mpg: 33.9; disp: 71.1" role="graphics-symbol" aria-roledescription="point" transform="translate(572.7272727272729,381.8181818181818)" d="M3.545,0A3.545,3.545,0,1,1,-3.545,0A3.545,3.545,0,1,1,3.545,0" fill="black" fill-opacity="0.8" stroke="black" stroke-width="1.3333333333333333" opacity="0.7"/><path aria-label="mpg: 21.5; disp: 120.1" role="graphics-symbol" aria-roledescription="point" transform="translate(284.9129593810446,337.3727295403524)" d="M3.545,0A3.545,3.545,0,1,1,-3.545,0A3.545,3.545,0,1,1,3.545,0" fill="black" fill-opacity="0.8" stroke="black" stroke-width="1.3333333333333333" opacity="0.7"/><path aria-label="mpg: 15.5; disp: 318" role="graphics-symbol" aria-roledescription="point" transform="translate(145.6479690522244,157.8675253407107)" d="M3.545,0A3.545,3.545,0,1,1,-3.545,0A3.545,3.545,0,1,1,3.545,0" fill="black" fill-opacity="0.8" stroke="black" stroke-width="1.3333333333333333" opacity="0.7"/><path aria-label="mpg: 15.2; disp: 304" role="graphics-symbol" aria-roledescription="point" transform="translate(138.6847195357834,170.5662259915191)" d="M3.545,0A3.545,3.545,0,1,1,-3.545,0A3.545,3.545,0,1,1,3.545,0" fill="black" fill-opacity="0.8" stroke="black" stroke-width="1.3333333333333333" opacity="0.7"/><path aria-label="mpg: 13.3; disp: 350" role="graphics-symbol" aria-roledescription="point" transform="translate(94.58413926499037,128.8419238531486)" d="M3.545,0A3.545,3.545,0,1,1,-3.545,0A3.545,3.545,0,1,1,3.545,0" fill="black" fill-opacity="0.8" stroke="black" stroke-width="1.3333333333333333" opacity="0.7"/><path aria-label="mpg: 19.2; disp: 400" role="graphics-symbol" aria-roledescription="point" transform="translate(231.52804642166348,83.48942152883288)" d="M3.545,0A3.545,3.545,0,1,1,-3.545,0A3.545,3.545,0,1,1,3.545,0" fill="black" fill-opacity="0.8" stroke="black" stroke-width="1.3333333333333333" opacity="0.7"/><path aria-label="mpg: 27.3; disp: 79" role="graphics-symbol" aria-roledescription="point" transform="translate(419.53578336557075,374.65248645093993)" d="M3.545,0A3.545,3.545,0,1,1,-3.545,0A3.545,3.545,0,1,1,3.545,0" fill="black" fill-opacity="0.8" stroke="black" stroke-width="1.3333333333333333" opacity="0.7"/><path aria-label="mpg: 26; disp: 120.3" role="graphics-symbol" aria-roledescription="point" transform="translate(389.3617021276596,337.1913195310551)" d="M3.545,0A3.545,3.545,0,1,1,-3.545,0A3.545,3.545,0,1,1,3.545,0" fill="black" fill-opacity="0.8" stroke="black" stroke-width="1.3333333333333333" opacity="0.7"/><path aria-label="mpg: 30.4; disp: 95.1" role="graphics-symbol" aria-roledescription="point" transform="translate(491.48936170212767,360.0489807025103)" d="M3.545,0A3.545,3.545,0,1,1,-3.545,0A3.545,3.545,0,1,1,3.545,0" fill="black" fill-opacity="0.8" stroke="black" stroke-width="1.3333333333333333" opacity="0.7"/><path aria-label="mpg: 15.8; disp: 351" role="graphics-symbol" aria-roledescription="point" transform="translate(152.61121856866546,127.93487380666231)" d="M3.545,0A3.545,3.545,0,1,1,-3.545,0A3.545,3.545,0,1,1,3.545,0" fill="black" fill-opacity="0.8" stroke="black" stroke-width="1.3333333333333333" opacity="0.7"/><path aria-label="mpg: 19.7; disp: 145" role="graphics-symbol" aria-roledescription="point" transform="translate(243.13346228239848,314.7871833828431)" d="M3.545,0A3.545,3.545,0,1,1,-3.545,0A3.545,3.545,0,1,1,3.545,0" fill="black" fill-opacity="0.8" stroke="black" stroke-width="1.3333333333333333" opacity="0.7"/><path aria-label="mpg: 15; disp: 301" role="graphics-symbol" aria-roledescription="point" transform="translate(134.04255319148942,173.28737613097803)" d="M3.545,0A3.545,3.545,0,1,1,-3.545,0A3.545,3.545,0,1,1,3.545,0" fill="black" fill-opacity="0.8" stroke="black" stroke-width="1.3333333333333333" opacity="0.7"/><path aria-label="mpg: 21.4; disp: 121" role="graphics-symbol" aria-roledescription="point" transform="translate(282.59187620889753,336.5563844985147)" d="M3.545,0A3.545,3.545,0,1,1,-3.545,0A3.545,3.545,0,1,1,3.545,0" fill="black" fill-opacity="0.8" stroke="black" stroke-width="1.3333333333333333" opacity="0.7"/></g></g><path class="foreground" aria-hidden="true" d="" display="none"/></g></g></g><defs><clipPath id="clip1"><rect x="0" y="0" width="600" height="400"/></clipPath></defs></svg>
