<svg xmlns="http://www.w3.org/2000/svg" xmlns:xlink="http://www.w3.org/1999/xlink" version="1.1" class="marks" width="749" height="532" viewBox="0 0 749 532"><rect width="749" height="532" fill="white"/><g fill="none" stroke-miterlimit="10" transform="translate(64,5)"><g class="mark-group role-frame root" role="graphics-object" aria-roledescription="group mark container"><g transform="translate(0,0)"><path class="background" aria-hidden="true" d="M0,0h672v480h-672Z" fill="#EBEBEB"/><g><g class="mark-group role-axis" aria-hidden="true"><g transform="translate(0.5,480.5)"><path class="background" aria-hidden="true" d="M0,0h0v0h0Z" pointer-events="none"/><g><g class="mark-rule role-axis-grid" pointer-events="none"><line transform="translate(20,-480)" x2="0" y2="480" stroke="#FFFFFF" stroke-width="1" opacity="1"/><line transform="translate(150,-480)" x2="0" y2="480" stroke="#FFFFFF" stroke-width="1" opacity="1"/><line transform="translate(280,-480)" x2="0" y2="480" stroke="#FFFFFF" stroke-width="1" opacity="1"/><line transform="translate(410,-480)" x2="0" y2="480" stroke="#FFFFFF" stroke-width="1" opacity="1"/><line transform="translate(540,-480)" x2="0" y2="480" stroke="#FFFFFF" stroke-width="1" opacity="1"/><line transform="translate(670,-480)" x2="0" y2="480" stroke="#FFFFFF" stroke-width="1" opacity="1"/></g></g><path class="foreground" aria-hidden="true" d="" pointer-events="none" display="none"/></g></g><g class="mark-group role-axis" aria-hidden="true"><g transform="translate(0.5,0.5)"><path class="background" aria-hidden="true" d="M0,0h0v0h0Z" pointer-events="none"/><g><g class="mark-rule role-axis-grid" pointer-events="none"><line transform="translate(0,427)" x2="672" y2="0" stroke="#FFFFFF" stroke-width="1" opacity="1"/><line transform="translate(0,318)" x2="672" y2="0" stroke="#FFFFFF" stroke-width="1" opacity="1"/><line transform="translate(0,209)" x2="672" y2="0" stroke="#FFFFFF" stroke-width="1" opacity="1"/><line transform="translate(0,100)" x2="672" y2="0" stroke="#FFFFFF" stroke-width="1" opacity="1"/></g></g><path class="foreground" aria-hidden="true" d="" pointer-events="none" display="none"/></g></g><g class="mark-group role-axis" role="graphics-symbol" aria-roledescription="axis" aria-label="X-axis titled 'mpg' for a linear scale with values from 9 to 35"><g transform="translate(0.5,480.5)"><path class="background" aria-hidden="true" d="M0,0h0v0h0Z" pointer-events="none"/><g><g class="mark-rule role-axis-tick" pointer-events="none"><line transform="translate(20,0)" x2="0" y2="4" stroke="#333333" stroke-width="1" opacity="1"/><line transform="translate(150,0)" x2="0" y2="4" stroke="#333333" stroke-width="1" opacity="1"/><line transform="translate(280,0)" x2="0" y2="4" stroke="#333333" stroke-width="1" opacity="1"/><line transform="translate(410,0)" x2="0" y2="4" stroke="#333333" stroke-width="1" opacity="1"/><line transform="translate(540,0)" x2="0" y2="4" stroke="#333333" stroke-width="1" opacity="1"/><line transform="translate(670,0)" x2="0" y2="4" stroke="#333333" stroke-width="1" opacity="1"/></g><g class="mark-text role-axis-label" pointer-events="none"><text text-anchor="middle" transform="translate(20.14700193423599,15)" font-family="sans-serif" font-size="12px" fill="#4D4D4D" opacity="1">10</text><text text-anchor="middle" transform="translate(150.12765957446814,15)" font-family="sans-serif" font-size="12px" fill="#4D4D4D" opacity="1">15</text><text text-anchor="middle" transform="translate(280.10831721470026,15)" font-family="sans-serif" font-size="12px" fill="#4D4D4D" opacity="1">20</text><text text-anchor="middle" transform="translate(410.0889748549324,15)" font-family="sans-serif" font-size="12px" fill="#4D4D4D" opacity="1">25</text><text text-anchor="middle" transform="translate(540.0696324951645,15)" font-family="sans-serif" font-size="12px" fill="#4D4D4D" opacity="1">30</text><text text-anchor="middle" transform="translate(670.0502901353966,15)" font-family="sans-serif" font-size="12px" fill="#4D4D4D" opacity="1">35</text></g><g class="mark-text role-axis-title" pointer-events="none"><text text-anchor="middle" transform="translate(336,39)" font-family="sans-serif" font-size="15px" font-weight="normal" fill="#000000" opacity="1">mpg</text></g></g><path class="foreground" aria-hidden="true" d="" pointer-events="none" display="none"/></g></g><g class="mark-group role-axis" role="graphics-symbol" aria-roledescription="axis" aria-label="Y-axis titled 'disp' for a linear scale with values from 51 to 492"><g transform="translate(0.5,0.5)"><path class="background" aria-hidden="true" d="M0,0h0v0h0Z" pointer-events="none"/><g><g class="mark-rule role-axis-tick" pointer-events="none"><line transform="translate(0,427)" x2="-4" y2="0" stroke="#333333" stroke-width="1" opacity="1"/><line transform="translate(0,318)" x2="-4" y2="0" stroke="#333333" stroke-width="1" opacity="1"/><line transform="translate(0,209)" x2="-4" y2="0" stroke="#333333" stroke-width="1" opacity="1"/><line transform="translate(0,100)" x2="-4" y2="0" stroke="#333333" stroke-width="1" opacity="1"/></g><g class="mark-text role-axis-label" pointer-events="none"><text text-anchor="end" transform="translate(-6,430.7253225696728)" font-family="sans-serif" font-size="12px" fill="#4D4D4D" opacity="1">100</text><text text-anchor="end" transform="translate(-6,321.87931699131497)" font-family="sans-serif" font-size="12px" fill="#4D4D4D" opacity="1">200</text><text text-anchor="end" transform="translate(-6,213.0333114129572)" font-family="sans-serif" font-size="12px" fill="#4D4D4D" opacity="1">300</text><text text-anchor="end" transform="translate(-6,104.18730583459944)" font-family="sans-serif" font-size="12px" fill="#4D4D4D" opacity="1">400</text></g><g class="mark-text role-axis-title" pointer-events="none"><text text-anchor="middle" transform="translate(-44,240) rotate(-90) translate(0,-3)" font-family="sans-serif" font-size="15px" font-weight="normal" fill="#000000" opacity="1">disp</text></g></g><path class="foreground" aria-hidden="true" d="" pointer-events="none" display="none"/></g></g><g class="mark-symbol role-mark layer_0_marks" clip-path="url(#clip1)" role="graphics-object" aria-roledescription="symbol mark container"><path aria-label="mpg: 21; disp: 160" role="graphics-symbol" aria-roledescription="point" transform="translate(306.1044487427467,361.4177192226581)" d="M2.836,0L2.783,0.553L2.62,1.085L2.357,1.574L2.006,2.006L1.574,2.357L1.085,2.62L0.553,2.783L0,2.836L-0.553,2.783L-1.085,2.62L-1.574,2.357L-2.006,2.006L-2.357,1.574L-2.62,1.085L-2.783,0.553L-2.836,0L-2.783,-0.553L-2.62,-1.085L-2.357,-1.574L-2.006,-2.006L-1.574,-2.357L-1.085,-2.62L-0.553,-2.783L0,-2.836L0.553,-2.783L1.085,-2.62L1.574,-2.357L2.006,-2.006L2.357,-1.574L2.62,-1.085L2.783,-0.553Z" fill="black" fill-opacity="0.8" stroke="black" stroke-width="1.3333333333333333" opacity="1"/><path aria-label="mpg: 21; disp: 160" role="graphics-symbol" aria-roledescription="point" transform="translate(306.1044487427467,361.4177192226581)" d="M2.836,0L2.783,0.553L2.62,1.085L2.357,1.574L2.006,2.006L1.574,2.357L1.085,2.62L0.553,2.783L0,2.836L-0.553,2.783L-1.085,2.62L-1.574,2.357L-2.006,2.006L-2.357,1.574L-2.62,1.085L-2.783,0.553L-2.836,0L-2.783,-0.553L-2.62,-1.085L-2.357,-1.574L-2.006,-2.006L-1.574,-2.357L-1.085,-2.62L-0.553,-2.783L0,-2.836L0.553,-2.783L1.085,-2.62L1.574,-2.357L2.006,-2.006L2.357,-1.574L2.62,-1.085L2.783,-0.553Z" fill="black" fill-opacity="0.8" stroke="black" stroke-width="1.3333333333333333" opacity="1"/><path aria-label="mpg: 22.8; disp: 108" role="graphics-symbol" aria-roledescription="point" transform="translate(352.89748549323025,418.01764212340413)" d="M2.836,0L2.783,0.553L2.62,1.085L2.357,1.574L2.006,2.006L1.574,2.357L1.085,2.62L0.553,2.783L0,2.836L-0.553,2.783L-1.085,2.62L-1.574,2.357L-2.006,2.006L-2.357,1.574L-2.62,1.085L-2.783,0.553L-2.836,0L-2.783,-0.553L-2.62,-1.085L-2.357,-1.574L-2.006,-2.006L-1.574,-2.357L-1.085,-2.62L-0.553,-2.783L0,-2.836L0.553,-2.783L1.085,-2.62L1.574,-2.357L2.006,-2.006L2.357,-1.574L2.62,-1.085L2.783,-0.553Z" fill="black" fill-opacity="0.8" stroke="black" stroke-width="1.3333333333333333" opacity="1"/><path aria-label="mpg: 21.4; disp: 258" role="graphics-symbol" aria-roledescription="point" transform="translate(316.5029013539652,254.74863375586747)" d="M2.836,0L2.783,0.553L2.62,1.085L2.357,1.574L2.006,2.006L1.574,2.357L1.085,2.62L0.553,2.783L0,2.836L-0.553,2.783L-1.085,2.62L-1.574,2.357L-2.006,2.006L-2.357,1.574L-2.62,1.085L-2.783,0.553L-2.836,0L-2.783,-0.553L-2.62,-1.085L-2.357,-1.574L-2.006,-2.006L-1.574,-2.357L-1.085,-2.62L-0.553,-2.783L0,-2.836L0.553,-2.783L1.085,-2.62L1.574,-2.357L2.006,-2.006L2.357,-1.574L2.62,-1.085L2.783,-0.553Z" fill="black" fill-opacity="0.8" stroke="black" stroke-width="1.3333333333333333" opacity="1"/><path aria-label="mpg: 18.7; disp: 360" role="graphics-symbol" aria-roledescription="point" transform="translate(246.3133462282399,143.72570806594257)" d="M2.836,0L2.783,0.553L2.62,1.085L2.357,1.574L2.006,2.006L1.574,2.357L1.085,2.62L0.553,2.783L0,2.836L-0.553,2.783L-1.085,2.62L-1.574,2.357L-2.006,2.006L-2.357,1.574L-2.62,1.085L-2.783,0.553L-2.836,0L-2.783,-0.553L-2.62,-1.085L-2.357,-1.574L-2.006,-2.006L-1.574,-2.357L-1.085,-2.62L-0.553,-2.783L0,-2.836L0.553,-2.783L1.085,-2.62L1.574,-2.357L2.006,-2.006L2.357,-1.574L2.62,-1.085L2.783,-0.553Z" fill="black" fill-opacity="0.8" stroke="black" stroke-width="1.3333333333333333" opacity="1"/><path aria-label="mpg: 18.1; disp: 225" role="graphics-symbol" aria-roledescription="point" transform="translate(230.71566731141212,290.6678155967255)" d="M2.836,0L2.783,0.553L2.62,1.085L2.357,1.574L2.006,2.006L1.574,2.357L1.085,2.62L0.553,2.783L0,2.836L-0.553,2.783L-1.085,2.62L-1.574,2.357L-2.006,2.006L-2.357,1.574L-2.62,1.085L-2.783,0.553L-2.836,0L-2.783,-0.553L-2.62,-1.085L-2.357,-1.574L-2.006,-2.006L-1.574,-2.357L-1.085,-2.62L-0.553,-2.783L0,-2.836L0.553,-2.783L1.085,-2.62L1.574,-2.357L2.006,-2.006L2.357,-1.574L2.62,-1.085L2.783,-0.553Z" fill="black" fill-opacity="0.8" stroke="black" stroke-width="1.3333333333333333" opacity="1"/><path aria-label="mpg: 14.3; disp: 360" role="graphics-symbol" aria-roledescription="point" transform="translate(131.93036750483563,143.72570806594257)" d="M2.836,0L2.783,0.553L2.62,1.085L2.357,1.574L2.006,2.006L1.574,2.357L1.085,2.62L0.553,2.783L0,2.836L-0.553,2.783L-1.085,2.62L-1.574,2.357L-2.006,2.006L-2.357,1.574L-2.62,1.085L-2.783,0.553L-2.836,0L-2.783,-0.553L-2.62,-1.085L-2.357,-1.574L-2.006,-2.006L-1.574,-2.357L-1.085,-2.62L-0.553,-2.783L0,-2.836L0.553,-2.783L1.085,-2.62L1.574,-2.357L2.006,-2.006L2.357,-1.574L2.62,-1.085L2.783,-0.553Z" fill="black" fill-opacity="0.8" stroke="black" stroke-width="1.3333333333333333" opacity="1"/><path aria-label="mpg: 24.4; disp: 146.7" role="graphics-symbol" aria-roledescription="point" transform="translate(394.4912959381045,375.8942379645797)" d="M2.836,0L2.783,0.553L2.62,1.085L2.357,1.574L2.006,2.006L1.574,2.357L1.085,2.62L0.553,2.783L0,2.836L-0.553,2.783L-1.085,2.62L-1.574,2.357L-2.006,2.006L-2.357,1.574L-2.62,1.085L-2.783,0.553L-2.836,0L-2.783,-0.553L-2.62,-1.085L-2.357,-1.574L-2.006,-2.006L-1.574,-2.357L-1.085,-2.62L-0.553,-2.783L0,-2.836L0.553,-2.783L1.085,-2.62L1.574,-2.357L2.006,-2.006L2.357,-1.574L2.62,-1.085L2.783,-0.553Z" fill="black" fill-opacity="0.8" stroke="black" stroke-width="1.3333333333333333" opacity="1"/><path aria-label="mpg: 22.8; disp: 140.8" role="graphics-symbol" aria-roledescription="point" transform="translate(352.89748549323025,382.31615229370277)" d="M2.836,0L2.783,0.553L2.62,1.085L2.357,1.574L2.006,2.006L1.574,2.357L1.085,2.62L0.553,2.783L0,2.836L-0.553,2.783L-1.085,2.62L-1.574,2.357L-2.006,2.006L-2.357,1.574L-2.62,1.085L-2.783,0.553L-2.836,0L-2.783,-0.553L-2.62,-1.085L-2.357,-1.574L-2.006,-2.006L-1.574,-2.357L-1.085,-2.62L-0.553,-2.783L0,-2.836L0.553,-2.783L1.085,-2.62L1.574,-2.357L2.006,-2.006L2.357,-1.574L2.62,-1.085L2.783,-0.553Z" fill="black" fill-opacity="0.8" stroke="black" stroke-width="1.3333333333333333" opacity="1"/><path aria-label="mpg: 19.2; disp: 167.6" role="graphics-symbol" aria-roledescription="point" transform="translate(259.3114119922631,353.1454227987029)" d="M2.836,0L2.783,0.553L2.62,1.085L2.357,1.574L2.006,2.006L1.574,2.357L1.085,2.62L0.553,2.783L0,2.836L-0.553,2.783L-1.085,2.62L-1.574,2.357L-2.006,2.006L-2.357,1.574L-2.62,1.085L-2.783,0.553L-2.836,0L-2.783,-0.553L-2.62,-1.085L-2.357,-1.574L-2.006,-2.006L-1.574,-2.357L-1.085,-2.62L-0.553,-2.783L0,-2.836L0.553,-2.783L1.085,-2.62L1.574,-2.357L2.006,-2.006L2.357,-1.574L2.62,-1.085L2.783,-0.553Z" fill="black" fill-opacity="0.8" stroke="black" stroke-width="1.3333333333333333" opacity="1"/><path aria-label="mpg: 17.8; disp: 167.6" role="graphics-symbol" aria-roledescription="point" transform="translate(222.91682785299815,353.1454227987029)" d="M2.836,0L2.783,0.553L2.62,1.085L2.357,1.574L2.006,2.006L1.574,2.357L1.085,2.62L0.553,2.783L0,2.836L-0.553,2.783L-1.085,2.62L-1.574,2.357L-2.006,2.006L-2.357,1.574L-2.62,1.085L-2.783,0.553L-2.836,0L-2.783,-0.553L-2.62,-1.085L-2.357,-1.574L-2.006,-2.006L-1.574,-2.357L-1.085,-2.62L-0.553,-2.783L0,-2.836L0.553,-2.783L1.085,-2.62L1.574,-2.357L2.006,-2.006L2.357,-1.574L2.62,-1.085L2.783,-0.553Z" fill="black" fill-opacity="0.8" stroke="black" stroke-width="1.3333333333333333" opacity="1"/><path aria-label="mpg: 16.4; disp: 275.8" role="graphics-symbol" aria-roledescription="point" transform="translate(186.5222437137331,235.3740447629198)" d="M2.836,0L2.783,0.553L2.62,1.085L2.357,1.574L2.006,2.006L1.574,2.357L1.085,2.62L0.553,2.783L0,2.836L-0.553,2.783L-1.085,2.62L-1.574,2.357L-2.006,2.006L-2.357,1.574L-2.62,1.085L-2.783,0.553L-2.836,0L-2.783,-0.553L-2.62,-1.085L-2.357,-1.574L-2.006,-2.006L-1.574,-2.357L-1.085,-2.62L-0.553,-2.783L0,-2.836L0.553,-2.783L1.085,-2.62L1.574,-2.357L2.006,-2.006L2.357,-1.574L2.62,-1.085L2.783,-0.553Z" fill="black" fill-opacity="0.8" stroke="black" stroke-width="1.3333333333333333" opacity="1"/><path aria-label="mpg: 17.3; disp: 275.8" role="graphics-symbol" aria-roledescription="point" transform="translate(209.91876208897492,235.3740447629198)" d="M2.836,0L2.783,0.553L2.62,1.085L2.357,1.574L2.006,2.006L1.574,2.357L1.085,2.62L0.553,2.783L0,2.836L-0.553,2.783L-1.085,2.62L-1.574,2.357L-2.006,2.006L-2.357,1.574L-2.62,1.085L-2.783,0.553L-2.836,0L-2.783,-0.553L-2.62,-1.085L-2.357,-1.574L-2.006,-2.006L-1.574,-2.357L-1.085,-2.62L-0.553,-2.783L0,-2.836L0.553,-2.783L1.085,-2.62L1.574,-2.357L2.006,-2.006L2.357,-1.574L2.62,-1.085L2.783,-0.553Z" fill="black" fill-opacity="0.8" stroke="black" stroke-width="1.3333333333333333" opacity="1"/><path aria-label="mpg: 15.2; disp: 275.8" role="graphics-symbol" aria-roledescription="point" transform="translate(155.32688588007738,235.3740447629198)" d="M2.836,0L2.783,0.553L2.62,1.085L2.357,1.574L2.006,2.006L1.574,2.357L1.085,2.62L0.553,2.783L0,2.836L-0.553,2.783L-1.085,2.62L-1.574,2.357L-2.006,2.006L-2.357,1.574L-2.62,1.085L-2.783,0.553L-2.836,0L-2.783,-0.553L-2.62,-1.085L-2.357,-1.574L-2.006,-2.006L-1.574,-2.357L-1.085,-2.62L-0.553,-2.783L0,-2.836L0.553,-2.783L1.085,-2.62L1.574,-2.357L2.006,-2.006L2.357,-1.574L2.62,-1.085L2.783,-0.553Z" fill="black" fill-opacity="0.8" stroke="black" stroke-width="1.3333333333333333" opacity="1"/><path aria-label="mpg: 10.4; disp: 472" role="graphics-symbol" aria-roledescription="point" transform="translate(30.545454545454568,21.818181818181852)" d="M2.836,0L2.783,0.553L2.62,1.085L2.357,1.574L2.006,2.006L1.574,2.357L1.085,2.62L0.553,2.783L0,2.836L-0.553,2.783L-1.085,2.62L-1.574,2.357L-2.006,2.006L-2.357,1.574L-2.62,1.085L-2.783,0.553L-2.836,0L-2.783,-0.553L-2.62,-1.085L-2.357,-1.574L-2.006,-2.006L-1.574,-2.357L-1.085,-2.62L-0.553,-2.783L0,-2.836L0.553,-2.783L1.085,-2.62L1.574,-2.357L2.006,-2.006L2.357,-1.574L2.62,-1.085L2.783,-0.553Z" fill="black" fill-opacity="0.8" stroke="black" stroke-width="1.3333333333333333" opacity="1"/><path aria-label="mpg: 10.4; disp: 460" role="graphics-symbol" aria-roledescription="point" transform="translate(30.545454545454568,34.87970248758476)" d="M2.836,0L2.783,0.553L2.62,1.085L2.357,1.574L2.006,2.006L1.574,2.357L1.085,2.62L0.553,2.783L0,2.836L-0.553,2.783L-1.085,2.62L-1.574,2.357L-2.006,2.006L-2.357,1.574L-2.62,1.085L-2.783,0.553L-2.836,0L-2.783,-0.553L-2.62,-1.085L-2.357,-1.574L-2.006,-2.006L-1.574,-2.357L-1.085,-2.62L-0.553,-2.783L0,-2.836L0.553,-2.783L1.085,-2.62L1.574,-2.357L2.006,-2.006L2.357,-1.574L2.62,-1.085L2.783,-0.553Z" fill="black" fill-opacity="0.8" stroke="black" stroke-width="1.3333333333333333" opacity="1"/><path aria-label="mpg: 14.7; disp: 440" role="graphics-symbol" aria-roledescription="point" transform="translate(142.32882011605417,56.64890360325632)" d="M2.836,0L2.783,0.553L2.62,1.085L2.357,1.574L2.006,2.006L1.574,2.357L1.085,2.62L0.553,2.783L0,2.836L-0.553,2.783L-1.085,2.62L-1.574,2.357L-2.006,2.006L-2.357,1.574L-2.62,1.085L-2.783,0.553L-2.836,0L-2.783,-0.553L-2.62,-1.085L-2.357,-1.574L-2.006,-2.006L-1.574,-2.357L-1.085,-2.62L-0.553,-2.783L0,-2.836L0.553,-2.783L1.085,-2.62L1.574,-2.357L2.006,-2.006L2.357,-1.574L2.62,-1.085L2.783,-0.553Z" fill="black" fill-opacity="0.8" stroke="black" stroke-width="1.3333333333333333" opacity="1"/><path aria-label="mpg: 32.4; disp: 78.7" role="graphics-symbol" aria-roledescription="point" transform="translate(602.4603481624758,449.90952175786293)" d="M2.836,0L2.783,0.553L2.62,1.085L2.357,1.574L2.006,2.006L1.574,2.357L1.085,2.62L0.553,2.783L0,2.836L-0.553,2.783L-1.085,2.62L-1.574,2.357L-2.006,2.006L-2.357,1.574L-2.62,1.085L-2.783,0.553L-2.836,0L-2.783,-0.553L-2.62,-1.085L-2.357,-1.574L-2.006,-2.006L-1.574,-2.357L-1.085,-2.62L-0.553,-2.783L0,-2.836L0.553,-2.783L1.085,-2.62L1.574,-2.357L2.006,-2.006L2.357,-1.574L2.62,-1.085L2.783,-0.553Z" fill="black" fill-opacity="0.8" stroke="black" stroke-width="1.3333333333333333" opacity="1"/><path aria-label="mpg: 30.4; disp: 75.7" role="graphics-symbol" aria-roledescription="point" transform="translate(550.468085106383,453.1749019252137)" d="M2.836,0L2.783,0.553L2.62,1.085L2.357,1.574L2.006,2.006L1.574,2.357L1.085,2.62L0.553,2.783L0,2.836L-0.553,2.783L-1.085,2.62L-1.574,2.357L-2.006,2.006L-2.357,1.574L-2.62,1.085L-2.783,0.553L-2.836,0L-2.783,-0.553L-2.62,-1.085L-2.357,-1.574L-2.006,-2.006L-1.574,-2.357L-1.085,-2.62L-0.553,-2.783L0,-2.836L0.553,-2.783L1.085,-2.62L1.574,-2.357L2.006,-2.006L2.357,-1.574L2.62,-1.085L2.783,-0.553Z" fill="black" fill-opacity="0.8" stroke="black" stroke-width="1.3333333333333333" opacity="1"/><path aria-label="mpg: 33.9; disp: 71.1" role="graphics-symbol" aria-roledescription="point" transform="translate(641.4545454545456,458.1818181818182)" d="M2.836,0L2.783,0.553L2.62,1.085L2.357,1.574L2.006,2.006L1.574,2.357L1.085,2.62L0.553,2.783L0,2.836L-0.553,2.783L-1.085,2.62L-1.574,2.357L-2.006,2.006L-2.357,1.574L-2.62,1.085L-2.783,0.553L-2.836,0L-2.783,-0.553L-2.62,-1.085L-2.357,-1.574L-2.006,-2.006L-1.574,-2.357L-1.085,-2.62L-0.553,-2.783L0,-2.836L0.553,-2.783L1.085,-2.62L1.574,-2.357L2.006,-2.006L2.357,-1.574L2.62,-1.085L2.783,-0.553Z" fill="black" fill-opacity="0.8" stroke="black" stroke-width="1.3333333333333333" opacity="1"/><path aria-label="mpg: 21.5; disp: 120.1" role="graphics-symbol" aria-roledescription="point" transform="translate(319.1025145067699,404.84727544842286)" d="M2.836,0L2.783,0.553L2.62,1.085L2.357,1.574L2.006,2.006L1.574,2.357L1.085,2.62L0.553,2.783L0,2.836L-0.553,2.783L-1.085,2.62L-1.574,2.357L-2.006,2.006L-2.357,1.574L-2.62,1.085L-2.783,0.553L-2.836,0L-2.783,-0.553L-2.62,-1.085L-2.357,-1.574L-2.006,-2.006L-1.574,-2.357L-1.085,-2.62L-0.553,-2.783L0,-2.836L0.553,-2.783L1.085,-2.62L1.574,-2.357L2.006,-2.006L2.357,-1.574L2.62,-1.085L2.783,-0.553Z" fill="black" fill-opacity="0.8" stroke="black" stroke-width="1.3333333333333333" opacity="1"/><path aria-label="mpg: 15.5; disp: 318" role="graphics-symbol" aria-roledescription="point" transform="translate(163.12572533849135,189.44103040885284)" d="M2.836,0L2.783,0.553L2.62,1.085L2.357,1.574L2.006,2.006L1.574,2.357L1.085,2.62L0.553,2.783L0,2.836L-0.553,2.783L-1.085,2.62L-1.574,2.357L-2.006,2.006L-2.357,1.574L-2.62,1.085L-2.783,0.553L-2.836,0L-2.783,-0.553L-2.62,-1.085L-2.357,-1.574L-2.006,-2.006L-1.574,-2.357L-1.085,-2.62L-0.553,-2.783L0,-2.836L0.553,-2.783L1.085,-2.62L1.574,-2.357L2.006,-2.006L2.357,-1.574L2.62,-1.085L2.783,-0.553Z" fill="black" fill-opacity="0.8" stroke="black" stroke-width="1.3333333333333333" opacity="1"/><path aria-label="mpg: 15.2; disp: 304" role="graphics-symbol" aria-roledescription="point" transform="translate(155.32688588007738,204.67947118982292)" d="M2.836,0L2.783,0.553L2.62,1.085L2.357,1.574L2.006,2.006L1.574,2.357L1.085,2.62L0.553,2.783L0,2.836L-0.553,2.783L-1.085,2.62L-1.574,2.357L-2.006,2.006L-2.357,1.574L-2.62,1.085L-2.783,0.553L-2.836,0L-2.783,-0.553L-2.62,-1.085L-2.357,-1.574L-2.006,-2.006L-1.574,-2.357L-1.085,-2.62L-0.553,-2.783L0,-2.836L0.553,-2.783L1.085,-2.62L1.574,-2.357L2.006,-2.006L2.357,-1.574L2.62,-1.085L2.783,-0.553Z" fill="black" fill-opacity="0.8" stroke="black" stroke-width="1.3333333333333333" opacity="1"/><path aria-label="mpg: 13.3; disp: 350" role="graphics-symbol" aria-roledescription="point" transform="translate(105.93423597678922,154.6103086237783)" d="M2.836,0L2.783,0.553L2.62,1.085L2.357,1.574L2.006,2.006L1.574,2.357L1.085,2.62L0.553,2.783L0,2.836L-0.553,2.783L-1.085,2.62L-1.574,2.357L-2.006,2.006L-2.357,1.574L-2.62,1.085L-2.783,0.553L-2.836,0L-2.783,-0.553L-2.62,-1.085L-2.357,-1.574L-2.006,-2.006L-1.574,-2.357L-1.085,-2.62L-0.553,-2.783L0,-2.836L0.553,-2.783L1.085,-2.62L1.574,-2.357L2.006,-2.006L2.357,-1.574L2.62,-1.085L2.783,-0.553Z" fill="black" fill-opacity="0.8" stroke="black" stroke-width="1.3333333333333333" opacity="1"/><path aria-label="mpg: 19.2; disp: 400" role="graphics-symbol" aria-roledescription="point" transform="translate(259.3114119922631,100.18730583459944)" d="M2.836,0L2.783,0.553L2.62,1.085L2.357,1.574L2.006,2.006L1.574,2.357L1.085,2.62L0.553,2.783L0,2.836L-0.553,2.783L-1.085,2.62L-1.574,2.357L-2.006,2.006L-2.357,1.574L-2.62,1.085L-2.783,0.553L-2.836,0L-2.783,-0.553L-2.62,-1.085L-2.357,-1.574L-2.006,-2.006L-1.574,-2.357L-1.085,-2.62L-0.553,-2.783L0,-2.836L0.553,-2.783L1.085,-2.62L1.574,-2.357L2.006,-2.006L2.357,-1.574L2.62,-1.085L2.783,-0.553Z" fill="black" fill-opacity="0.8" stroke="black" stroke-width="1.3333333333333333" opacity="1"/><path aria-label="mpg: 27.3; disp: 79" role="graphics-symbol" aria-roledescription="point" transform="translate(469.8800773694392,449.5829837411279)" d="M2.836,0L2.783,0.553L2.62,1.085L2.357,1.574L2.006,2.006L1.574,2.357L1.085,2.62L0.553,2.783L0,2.836L-0.553,2.783L-1.085,2.62L-1.574,2.357L-2.006,2.006L-2.357,1.574L-2.62,1.085L-2.783,0.553L-2.836,0L-2.783,-0.553L-2.62,-1.085L-2.357,-1.574L-2.006,-2.006L-1.574,-2.357L-1.085,-2.62L-0.553,-2.783L0,-2.836L0.553,-2.783L1.085,-2.62L1.574,-2.357L2.006,-2.006L2.357,-1.574L2.62,-1.085L2.783,-0.553Z" fill="black" fill-opacity="0.8" stroke="black" stroke-width="1.3333333333333333" opacity="1"/><path aria-label="mpg: 26; disp: 120.3" role="graphics-symbol" aria-roledescription="point" transform="translate(436.0851063829788,404.6295834372661)" d="M2.836,0L2.783,0.553L2.62,1.085L2.357,1.574L2.006,2.006L1.574,2.357L1.085,2.62L0.553,2.783L0,2.836L-0.553,2.783L-1.085,2.62L-1.574,2.357L-2.006,2.006L-2.357,1.574L-2.62,1.085L-2.783,0.553L-2.836,0L-2.783,-0.553L-2.62,-1.085L-2.357,-1.574L-2.006,-2.006L-1.574,-2.357L-1.085,-2.62L-0.553,-2.783L0,-2.836L0.553,-2.783L1.085,-2.62L1.574,-2.357L2.006,-2.006L2.357,-1.574L2.62,-1.085L2.783,-0.553Z" fill="black" fill-opacity="0.8" stroke="black" stroke-width="1.3333333333333333" opacity="1"/><path aria-label="mpg: 30.4; disp: 95.1" role="graphics-symbol" aria-roledescription="point" transform="translate(550.468085106383,432.0587768430123)" d="M2.836,0L2.783,0.553L2.62,1.085L2.357,1.574L2.006,2.006L1.574,2.357L1.085,2.62L0.553,2.783L0,2.836L-0.553,2.783L-1.085,2.62L-1.574,2.357L-2.006,2.006L-2.357,1.574L-2.62,1.085L-2.783,0.553L-2.836,0L-2.783,-0.553L-2.62,-1.085L-2.357,-1.574L-2.006,-2.006L-1.574,-2.357L-1.085,-2.62L-0.553,-2.783L0,-2.836L0.553,-2.783L1.085,-2.62L1.574,-2.357L2.006,-2.006L2.357,-1.574L2.62,-1.085L2.783,-0.553Z" fill="black" fill-opacity="0.8" stroke="black" stroke-width="1.3333333333333333" opacity="1"/><path aria-label="mpg: 15.8; disp: 351" role="graphics-symbol" aria-roledescription="point" transform="translate(170.92456479690532,153.52184856799477)" d="M2.836,0L2.783,0.553L2.62,1.085L2.357,1.574L2.006,2.006L1.574,2.357L1.085,2.62L0.553,2.783L0,2.836L-0.553,2.783L-1.085,2.62L-1.574,2.357L-2.006,2.006L-2.357,1.574L-2.62,1.085L-2.783,0.553L-2.836,0L-2.783,-0.553L-2.62,-1.085L-2.357,-1.574L-2.006,-2.006L-1.574,-2.357L-1.085,-2.62L-0.553,-2.783L0,-2.836L0.553,-2.783L1.085,-2.62L1.574,-2.357L2.006,-2.006L2.357,-1.574L2.62,-1.085L2.783,-0.553Z" fill="black" fill-opacity="0.8" stroke="black" stroke-width="1.3333333333333333" opacity="1"/><path aria-label="mpg: 19.7; disp: 145" role="graphics-symbol" aria-roledescription="point" transform="translate(272.3094777562863,377.7446200594118)" d="M2.836,0L2.783,0.553L2.62,1.085L2.357,1.574L2.006,2.006L1.574,2.357L1.085,2.62L0.553,2.783L0,2.836L-0.553,2.783L-1.085,2.62L-1.574,2.357L-2.006,2.006L-2.357,1.574L-2.62,1.085L-2.783,0.553L-2.836,0L-2.783,-0.553L-2.62,-1.085L-2.357,-1.574L-2.006,-2.006L-1.574,-2.357L-1.085,-2.62L-0.553,-2.783L0,-2.836L0.553,-2.783L1.085,-2.62L1.574,-2.357L2.006,-2.006L2.357,-1.574L2.62,-1.085L2.783,-0.553Z" fill="black" fill-opacity="0.8" stroke="black" stroke-width="1.3333333333333333" opacity="1"/><path aria-label="mpg: 15; disp: 301" role="graphics-symbol" aria-roledescription="point" transform="translate(150.12765957446814,207.94485135717363)" d="M2.836,0L2.783,0.553L2.62,1.085L2.357,1.574L2.006,2.006L1.574,2.357L1.085,2.62L0.553,2.783L0,2.836L-0.553,2.783L-1.085,2.62L-1.574,2.357L-2.006,2.006L-2.357,1.574L-2.62,1.085L-2.783,0.553L-2.836,0L-2.783,-0.553L-2.62,-1.085L-2.357,-1.574L-2.006,-2.006L-1.574,-2.357L-1.085,-2.62L-0.553,-2.783L0,-2.836L0.553,-2.783L1.085,-2.62L1.574,-2.357L2.006,-2.006L2.357,-1.574L2.62,-1.085L2.783,-0.553Z" fill="black" fill-opacity="0.8" stroke="black" stroke-width="1.3333333333333333" opacity="1"/><path aria-label="mpg: 21.4; disp: 121" role="graphics-symbol" aria-roledescription="point" transform="translate(316.5029013539652,403.86766139821765)" d="M2.836,0L2.783,0.553L2.62,1.085L2.357,1.574L2.006,2.006L1.574,2.357L1.085,2.62L0.553,2.783L0,2.836L-0.553,2.783L-1.085,2.62L-1.574,2.357L-2.006,2.006L-2.357,1.574L-2.62,1.085L-2.783,0.553L-2.836,0L-2.783,-0.553L-2.62,-1.085L-2.357,-1.574L-2.006,-2.006L-1.574,-2.357L-1.085,-2.62L-0.553,-2.783L0,-2.836L0.553,-2.783L1.085,-2.62L1.574,-2.357L2.006,-2.006L2.357,-1.574L2.62,-1.085L2.783,-0.553Z" fill="black" fill-opacity="0.8" stroke="black" stroke-width="1.3333333333333333" opacity="1"/></g></g><path class="foreground" aria-hidden="true" d="" display="none"/></g></g></g><defs><clipPath id="clip1"><rect x="0" y="0" width="672" height="480"/></clipPath></defs></svg>
